<?xml version="1.0" standalone="no"?>
<!DOCTYPE svg PUBLIC "-//W3C//DTD SVG 20010904//EN"
 "http://www.w3.org/TR/2001/REC-SVG-20010904/DTD/svg10.dtd">
<svg version="1.0" xmlns="http://www.w3.org/2000/svg"
 width="500.000000pt" height="500.000000pt" viewBox="0 0 500.000000 500.000000"
 preserveAspectRatio="xMidYMid meet">
<metadata>
Created by potrace 1.14, written by Peter Selinger 2001-2017
</metadata>
<g transform="translate(0.000000,500.000000) scale(0.100000,-0.100000)"
fill="#000000" stroke="none">
<path d="M2450 4929 c-19 -4 -70 -11 -113 -13 -66 -5 -177 -18 -262 -32 -36
-6 -77 -15 -139 -30 -34 -9 -70 -17 -81 -19 -11 -2 -20 -4 -20 -5 0 -1 -7 -3
-15 -5 -34 -7 -225 -77 -278 -102 -31 -14 -59 -27 -62 -28 -57 -22 -70 -29
-70 -38 0 -6 -3 -7 -7 -4 -3 4 -16 1 -27 -7 -12 -7 -35 -16 -52 -20 -17 -4
-53 -25 -80 -46 -68 -55 -64 -52 -116 -85 -27 -17 -48 -33 -48 -37 0 -5 -7 -8
-15 -8 -9 0 -18 -7 -21 -15 -4 -8 -10 -15 -15 -15 -11 0 -23 -9 -74 -57 -20
-18 -38 -33 -41 -33 -3 0 -44 -39 -92 -87 -48 -48 -90 -86 -94 -85 -5 1 -8 -2
-8 -8 0 -5 -11 -20 -25 -34 -14 -14 -25 -27 -25 -30 0 -3 -12 -18 -28 -34 -15
-16 -36 -42 -47 -58 -11 -15 -28 -35 -37 -43 -10 -9 -18 -21 -18 -28 0 -7 -4
-13 -10 -13 -5 0 -10 -7 -10 -15 0 -8 -5 -15 -11 -15 -5 0 -8 -4 -5 -9 3 -5
-1 -11 -9 -15 -8 -3 -15 -12 -15 -21 0 -8 -5 -15 -10 -15 -6 0 -13 -8 -17 -17
-3 -10 -21 -35 -39 -55 -19 -21 -36 -50 -39 -65 -4 -16 -18 -52 -33 -82 -15
-30 -26 -58 -24 -63 1 -4 -2 -8 -6 -8 -9 0 -38 -70 -34 -82 1 -4 -2 -8 -7 -8
-5 0 -11 -10 -14 -22 -3 -13 -18 -58 -35 -100 -25 -64 -66 -202 -77 -258 -2
-8 -4 -15 -5 -15 -1 0 -3 -9 -5 -20 -2 -11 -6 -31 -10 -45 -3 -14 -8 -38 -10
-55 -2 -16 -6 -48 -10 -70 -3 -22 -7 -56 -10 -75 -3 -19 -7 -75 -10 -124 -4
-49 -10 -97 -14 -105 -4 -9 -6 -32 -5 -51 3 -38 12 -105 14 -105 1 0 3 -25 4
-55 6 -94 18 -193 26 -216 5 -12 7 -24 4 -26 -3 -4 30 -174 40 -203 2 -5 5
-14 6 -20 1 -5 9 -30 17 -55 7 -25 16 -52 18 -60 19 -81 148 -382 166 -388 5
-2 9 -15 9 -28 0 -30 22 -75 46 -95 9 -7 44 -54 78 -103 81 -117 89 -129 101
-142 5 -6 24 -28 40 -49 40 -53 259 -271 315 -315 24 -19 51 -42 60 -50 27
-25 79 -60 89 -60 5 0 11 -4 13 -8 2 -5 26 -23 53 -42 28 -18 67 -48 87 -66
21 -19 50 -36 65 -40 16 -3 69 -25 118 -49 120 -58 266 -116 276 -110 4 3 10
1 13 -4 6 -9 91 -37 139 -46 9 -2 21 -6 25 -9 5 -3 24 -8 43 -11 19 -3 41 -8
49 -10 27 -8 74 -17 105 -20 17 -2 30 -4 30 -5 0 -1 11 -3 25 -5 94 -13 124
-16 201 -20 47 -2 97 -8 110 -13 27 -10 65 -8 122 6 23 6 37 6 37 0 0 -5 5 -6
10 -3 6 4 37 9 68 11 49 4 114 12 232 29 42 6 172 36 230 53 30 9 58 17 63 18
4 1 8 2 10 4 1 1 9 3 17 5 23 5 111 35 148 51 17 8 49 21 70 30 20 9 73 34
117 55 44 21 95 42 113 45 17 4 32 10 32 15 0 4 9 11 21 14 11 4 18 9 15 13
-3 3 20 23 51 43 86 57 94 63 109 77 8 7 14 11 14 8 0 -3 8 2 19 12 10 9 33
28 52 42 78 59 313 280 305 287 -2 2 18 27 45 56 49 54 149 182 149 192 0 8
78 113 101 136 10 10 21 31 25 46 3 16 24 66 47 113 23 47 42 87 43 90 0 3 5
16 11 30 6 14 18 42 26 62 9 21 13 38 9 38 -4 0 -2 4 4 8 9 6 64 165 70 202 1
8 7 30 12 48 6 17 8 32 5 32 -3 0 0 6 6 13 6 8 8 16 6 19 -3 3 -1 17 5 32 5
15 12 46 15 69 2 23 7 53 9 66 6 28 13 96 21 202 3 42 9 89 13 105 9 32 9 79
-1 109 -3 11 -9 57 -12 102 -8 118 -16 184 -31 266 -4 17 -8 41 -9 52 -2 11
-4 20 -5 20 -1 0 -3 9 -5 20 -1 11 -7 39 -13 62 -5 23 -7 44 -4 48 3 3 0 5 -6
5 -7 0 -12 14 -12 30 0 17 -4 30 -8 30 -4 0 -9 8 -10 18 -2 23 -7 43 -17 67
-4 11 -22 58 -40 105 -41 108 -105 243 -119 252 -6 4 -7 8 -2 8 5 0 3 6 -3 13
-6 8 -8 16 -5 19 9 10 -24 65 -51 86 -14 11 -25 24 -25 29 0 5 -22 40 -50 78
-74 104 -84 117 -97 131 -7 7 -13 15 -13 19 0 4 -20 27 -44 53 -113 122 -136
148 -136 155 0 4 -4 7 -8 7 -5 0 -33 24 -64 53 -66 63 -120 107 -131 107 -5 0
-5 5 -2 10 5 9 2 11 -20 10 -3 0 -17 10 -31 22 -55 51 -64 58 -66 56 -5 -4
-127 82 -152 107 -13 13 -37 27 -53 31 -15 3 -64 23 -108 44 -136 64 -265 116
-300 122 -11 2 -23 6 -26 10 -3 5 -17 9 -32 10 -15 1 -27 5 -27 8 0 5 -54 19
-132 36 -5 1 -9 2 -10 4 -2 1 -12 3 -23 5 -11 1 -33 5 -50 9 -16 3 -46 9 -65
11 -19 3 -46 8 -60 12 -26 6 -50 8 -180 17 -41 3 -99 10 -129 16 -29 5 -54 10
-55 9 0 -1 -17 -5 -36 -10z"/>
</g>
</svg>
